<svg width="114" height="15" viewBox="0 0 114 15" fill="none" xmlns="http://www.w3.org/2000/svg">
<path d="M2.22852 0.5V11H0.963867V0.5H2.22852ZM1.92773 7.02148L1.40137 7.00098C1.40592 6.49512 1.48112 6.02799 1.62695 5.59961C1.77279 5.16667 1.97786 4.79069 2.24219 4.47168C2.50651 4.15267 2.82096 3.90658 3.18555 3.7334C3.55469 3.55566 3.96257 3.4668 4.40918 3.4668C4.77376 3.4668 5.10189 3.51693 5.39355 3.61719C5.68522 3.71289 5.93359 3.86784 6.13867 4.08203C6.34831 4.29622 6.50781 4.57422 6.61719 4.91602C6.72656 5.25326 6.78125 5.66569 6.78125 6.15332V11H5.50977V6.13965C5.50977 5.75228 5.4528 5.44238 5.33887 5.20996C5.22493 4.97298 5.05859 4.80208 4.83984 4.69727C4.62109 4.58789 4.35221 4.5332 4.0332 4.5332C3.71875 4.5332 3.43164 4.59928 3.17188 4.73145C2.91667 4.86361 2.69564 5.0459 2.50879 5.27832C2.3265 5.51074 2.18294 5.77734 2.07812 6.07812C1.97786 6.37435 1.92773 6.6888 1.92773 7.02148ZM11.7441 11.1367C11.2292 11.1367 10.762 11.0501 10.3428 10.877C9.92806 10.6992 9.57031 10.4508 9.26953 10.1318C8.97331 9.81283 8.74544 9.43457 8.58594 8.99707C8.42643 8.55957 8.34668 8.08105 8.34668 7.56152V7.27441C8.34668 6.67285 8.43555 6.13737 8.61328 5.66797C8.79102 5.19401 9.03255 4.79297 9.33789 4.46484C9.64323 4.13672 9.98958 3.88835 10.377 3.71973C10.7643 3.55111 11.1654 3.4668 11.5801 3.4668C12.1087 3.4668 12.5645 3.55794 12.9473 3.74023C13.3346 3.92253 13.6514 4.17773 13.8975 4.50586C14.1436 4.82943 14.3258 5.21224 14.4443 5.6543C14.5628 6.0918 14.6221 6.57031 14.6221 7.08984V7.65723H9.09863V6.625H13.3574V6.5293C13.3392 6.20117 13.2708 5.88216 13.1523 5.57227C13.0384 5.26237 12.8561 5.00716 12.6055 4.80664C12.3548 4.60612 12.013 4.50586 11.5801 4.50586C11.293 4.50586 11.0286 4.56738 10.7871 4.69043C10.5456 4.80892 10.3382 4.98665 10.165 5.22363C9.99186 5.46061 9.85742 5.75 9.76172 6.0918C9.66602 6.43359 9.61816 6.8278 9.61816 7.27441V7.56152C9.61816 7.91243 9.66602 8.24284 9.76172 8.55273C9.86198 8.85807 10.0055 9.12695 10.1924 9.35938C10.3838 9.5918 10.6139 9.77409 10.8828 9.90625C11.1562 10.0384 11.4661 10.1045 11.8125 10.1045C12.2591 10.1045 12.6374 10.0133 12.9473 9.83105C13.2572 9.64876 13.5283 9.40495 13.7607 9.09961L14.5264 9.70801C14.3669 9.94954 14.1641 10.1797 13.918 10.3984C13.6719 10.6172 13.3688 10.7949 13.0088 10.9316C12.6533 11.0684 12.2318 11.1367 11.7441 11.1367ZM17.4727 0.5V11H16.2012V0.5H17.4727ZM20.877 0.5V11H19.6055V0.5H20.877ZM22.5723 7.38379V7.22656C22.5723 6.69336 22.6497 6.19889 22.8047 5.74316C22.9596 5.28288 23.1829 4.88411 23.4746 4.54688C23.7663 4.20508 24.1195 3.94076 24.5342 3.75391C24.9489 3.5625 25.4137 3.4668 25.9287 3.4668C26.4482 3.4668 26.9154 3.5625 27.3301 3.75391C27.7493 3.94076 28.1048 4.20508 28.3965 4.54688C28.6927 4.88411 28.9183 5.28288 29.0732 5.74316C29.2282 6.19889 29.3057 6.69336 29.3057 7.22656V7.38379C29.3057 7.91699 29.2282 8.41146 29.0732 8.86719C28.9183 9.32292 28.6927 9.72168 28.3965 10.0635C28.1048 10.4007 27.7516 10.665 27.3369 10.8564C26.9268 11.0433 26.4619 11.1367 25.9424 11.1367C25.4229 11.1367 24.9557 11.0433 24.541 10.8564C24.1263 10.665 23.7708 10.4007 23.4746 10.0635C23.1829 9.72168 22.9596 9.32292 22.8047 8.86719C22.6497 8.41146 22.5723 7.91699 22.5723 7.38379ZM23.8369 7.22656V7.38379C23.8369 7.75293 23.8802 8.10156 23.9668 8.42969C24.0534 8.75326 24.1833 9.04036 24.3564 9.29102C24.5342 9.54167 24.7552 9.73991 25.0195 9.88574C25.2839 10.027 25.5915 10.0977 25.9424 10.0977C26.2887 10.0977 26.5918 10.027 26.8516 9.88574C27.1159 9.73991 27.3346 9.54167 27.5078 9.29102C27.681 9.04036 27.8109 8.75326 27.8975 8.42969C27.9886 8.10156 28.0342 7.75293 28.0342 7.38379V7.22656C28.0342 6.86198 27.9886 6.5179 27.8975 6.19434C27.8109 5.86621 27.6787 5.57682 27.501 5.32617C27.3278 5.07096 27.109 4.87044 26.8447 4.72461C26.585 4.57878 26.2796 4.50586 25.9287 4.50586C25.5824 4.50586 25.277 4.57878 25.0127 4.72461C24.7529 4.87044 24.5342 5.07096 24.3564 5.32617C24.1833 5.57682 24.0534 5.86621 23.9668 6.19434C23.8802 6.5179 23.8369 6.86198 23.8369 7.22656ZM41.7949 7.56152C41.7767 7.98079 41.7129 8.40234 41.6035 8.82617C41.4941 9.24544 41.3301 9.63053 41.1113 9.98145C40.8926 10.3324 40.6077 10.6149 40.2568 10.8291C39.9105 11.0387 39.4912 11.1436 38.999 11.1436C38.6846 11.1436 38.4089 11.0889 38.1719 10.9795C37.9395 10.8656 37.748 10.7038 37.5977 10.4941C37.4518 10.2845 37.3493 10.0316 37.29 9.73535C37.2354 9.43913 37.2262 9.10872 37.2627 8.74414L37.6113 4.95703H38.6162L38.2676 8.74414C38.2402 9.07682 38.2471 9.34798 38.2881 9.55762C38.3337 9.76725 38.402 9.92904 38.4932 10.043C38.5843 10.1523 38.6868 10.2275 38.8008 10.2686C38.9193 10.3096 39.0332 10.3301 39.1426 10.3301C39.416 10.3301 39.6598 10.2594 39.874 10.1182C40.0882 9.97233 40.2682 9.77409 40.4141 9.52344C40.5645 9.26823 40.6807 8.97428 40.7627 8.6416C40.8447 8.30436 40.8949 7.94434 40.9131 7.56152C40.945 6.88249 40.9131 6.25814 40.8174 5.68848C40.7262 5.11882 40.569 4.61296 40.3457 4.1709C40.127 3.72884 39.8398 3.35514 39.4844 3.0498C39.1289 2.74447 38.7051 2.51204 38.2129 2.35254C37.7207 2.19303 37.1579 2.11328 36.5244 2.11328C35.9502 2.11328 35.4193 2.20215 34.9316 2.37988C34.4486 2.55306 34.0133 2.80371 33.626 3.13184C33.2432 3.45996 32.9128 3.85417 32.6348 4.31445C32.3613 4.77474 32.1449 5.29427 31.9854 5.87305C31.8304 6.44727 31.7393 7.06706 31.7119 7.73242C31.68 8.41602 31.7165 9.04492 31.8213 9.61914C31.9261 10.1888 32.0947 10.6969 32.3271 11.1436C32.5641 11.5947 32.8626 11.9753 33.2227 12.2852C33.5827 12.5996 33.9997 12.8366 34.4736 12.9961C34.9476 13.1602 35.4762 13.2422 36.0596 13.2422C36.4606 13.2422 36.8662 13.1943 37.2764 13.0986C37.6911 13.0029 38.0374 12.873 38.3154 12.709L38.5752 13.4883C38.2562 13.6934 37.8574 13.846 37.3789 13.9463C36.9049 14.0465 36.4561 14.0967 36.0322 14.0967C35.3395 14.0967 34.7061 14.001 34.1318 13.8096C33.5622 13.6227 33.0563 13.347 32.6143 12.9824C32.1768 12.6224 31.8122 12.1826 31.5205 11.6631C31.2288 11.1481 31.0146 10.5602 30.8779 9.89941C30.7412 9.23861 30.6888 8.51628 30.7207 7.73242C30.7526 6.98503 30.8643 6.28092 31.0557 5.62012C31.2516 4.95931 31.5182 4.36003 31.8555 3.82227C32.1927 3.28451 32.5938 2.82194 33.0586 2.43457C33.528 2.04264 34.0544 1.74186 34.6377 1.53223C35.2256 1.32259 35.8636 1.21777 36.5518 1.21777C37.2536 1.21777 37.8893 1.31348 38.459 1.50488C39.0286 1.69629 39.5277 1.97201 39.9561 2.33203C40.389 2.69206 40.7467 3.13184 41.0293 3.65137C41.3118 4.1709 41.5169 4.75879 41.6445 5.41504C41.7767 6.07129 41.8268 6.78678 41.7949 7.56152ZM34.7744 8.14258C34.7425 8.46159 34.7425 8.74642 34.7744 8.99707C34.8063 9.24772 34.8678 9.45964 34.959 9.63281C35.0501 9.80599 35.1686 9.93815 35.3145 10.0293C35.4648 10.1159 35.6403 10.1592 35.8408 10.1592C35.973 10.1592 36.112 10.1273 36.2578 10.0635C36.4036 9.99512 36.5472 9.8903 36.6885 9.74902C36.8298 9.60775 36.9619 9.42318 37.085 9.19531C37.208 8.96745 37.3105 8.69401 37.3926 8.375L37.8438 8.86719C37.7389 9.24089 37.6022 9.56901 37.4336 9.85156C37.2695 10.1341 37.085 10.3711 36.8799 10.5625C36.6748 10.7539 36.4561 10.8997 36.2236 11C35.9958 11.0957 35.7633 11.1436 35.5264 11.1436C35.1937 11.1436 34.902 11.0729 34.6514 10.9316C34.4007 10.7858 34.1979 10.5807 34.043 10.3164C33.888 10.0521 33.7786 9.73763 33.7148 9.37305C33.6556 9.00391 33.6465 8.59375 33.6875 8.14258C33.7285 7.66406 33.8128 7.22201 33.9404 6.81641C34.068 6.41081 34.2253 6.0485 34.4121 5.72949C34.6035 5.41048 34.8177 5.13932 35.0547 4.91602C35.2962 4.69271 35.5514 4.52409 35.8203 4.41016C36.0892 4.29167 36.3649 4.23242 36.6475 4.23242C37.1396 4.23242 37.527 4.30534 37.8096 4.45117C38.0921 4.59245 38.361 4.76107 38.6162 4.95703L38.0352 5.63379C37.903 5.50618 37.7298 5.3877 37.5156 5.27832C37.3014 5.16895 37.0485 5.11426 36.7568 5.11426C36.5062 5.11426 36.2715 5.17806 36.0527 5.30566C35.834 5.43327 35.6357 5.62467 35.458 5.87988C35.2848 6.13509 35.139 6.45182 35.0205 6.83008C34.902 7.20378 34.82 7.64128 34.7744 8.14258ZM45.1582 11H43.8936V2.96094C43.8936 2.40039 44.0029 1.92643 44.2217 1.53906C44.4404 1.15169 44.7526 0.857747 45.1582 0.657227C45.5638 0.456706 46.0446 0.356445 46.6006 0.356445C46.9287 0.356445 47.25 0.397461 47.5645 0.479492C47.8789 0.556966 48.2025 0.654948 48.5352 0.773438L48.3232 1.83984C48.1136 1.75781 47.8698 1.68034 47.5918 1.60742C47.3184 1.52995 47.0176 1.49121 46.6895 1.49121C46.1471 1.49121 45.7552 1.61426 45.5137 1.86035C45.2767 2.10189 45.1582 2.46875 45.1582 2.96094V11ZM46.6689 3.60352V4.57422H42.7246V3.60352H46.6689ZM49.1572 3.60352V11H47.8926V3.60352H49.1572ZM53.1221 11H51.8574V2.82422C51.8574 2.29102 51.9531 1.84212 52.1445 1.47754C52.3405 1.1084 52.6208 0.830404 52.9854 0.643555C53.3499 0.452148 53.7829 0.356445 54.2842 0.356445C54.43 0.356445 54.5758 0.36556 54.7217 0.383789C54.8721 0.402018 55.0179 0.429362 55.1592 0.46582L55.0908 1.49805C54.9951 1.47526 54.8857 1.45931 54.7627 1.4502C54.6442 1.44108 54.5257 1.43652 54.4072 1.43652C54.1383 1.43652 53.9059 1.49121 53.71 1.60059C53.5186 1.7054 53.3727 1.86035 53.2725 2.06543C53.1722 2.27051 53.1221 2.52344 53.1221 2.82422V11ZM54.6943 3.60352V4.57422H50.6885V3.60352H54.6943ZM59.1992 3.60352V4.57422H55.2002V3.60352H59.1992ZM56.5537 1.80566H57.8184V9.16797C57.8184 9.41862 57.8571 9.60775 57.9346 9.73535C58.012 9.86296 58.1123 9.94727 58.2354 9.98828C58.3584 10.0293 58.4906 10.0498 58.6318 10.0498C58.7367 10.0498 58.846 10.0407 58.96 10.0225C59.0785 9.99967 59.1673 9.98145 59.2266 9.96777L59.2334 11C59.1331 11.0319 59.001 11.0615 58.8369 11.0889C58.6774 11.1208 58.4837 11.1367 58.2559 11.1367C57.946 11.1367 57.6611 11.0752 57.4014 10.9521C57.1416 10.8291 56.9342 10.624 56.7793 10.3369C56.6289 10.0452 56.5537 9.65332 56.5537 9.16113V1.80566ZM61.9473 0.5V11H60.6826V0.5H61.9473ZM61.6465 7.02148L61.1201 7.00098C61.1247 6.49512 61.1999 6.02799 61.3457 5.59961C61.4915 5.16667 61.6966 4.79069 61.9609 4.47168C62.2253 4.15267 62.5397 3.90658 62.9043 3.7334C63.2734 3.55566 63.6813 3.4668 64.1279 3.4668C64.4925 3.4668 64.8206 3.51693 65.1123 3.61719C65.404 3.71289 65.6523 3.86784 65.8574 4.08203C66.0671 4.29622 66.2266 4.57422 66.3359 4.91602C66.4453 5.25326 66.5 5.66569 66.5 6.15332V11H65.2285V6.13965C65.2285 5.75228 65.1715 5.44238 65.0576 5.20996C64.9437 4.97298 64.7773 4.80208 64.5586 4.69727C64.3398 4.58789 64.071 4.5332 63.752 4.5332C63.4375 4.5332 63.1504 4.59928 62.8906 4.73145C62.6354 4.86361 62.4144 5.0459 62.2275 5.27832C62.0452 5.51074 61.9017 5.77734 61.7969 6.07812C61.6966 6.37435 61.6465 6.6888 61.6465 7.02148ZM71.4902 3.60352V4.57422H67.4912V3.60352H71.4902ZM68.8447 1.80566H70.1094V9.16797C70.1094 9.41862 70.1481 9.60775 70.2256 9.73535C70.3031 9.86296 70.4033 9.94727 70.5264 9.98828C70.6494 10.0293 70.7816 10.0498 70.9229 10.0498C71.0277 10.0498 71.137 10.0407 71.251 10.0225C71.3695 9.99967 71.4583 9.98145 71.5176 9.96777L71.5244 11C71.4242 11.0319 71.292 11.0615 71.1279 11.0889C70.9684 11.1208 70.7747 11.1367 70.5469 11.1367C70.237 11.1367 69.9521 11.0752 69.6924 10.9521C69.4326 10.8291 69.2253 10.624 69.0703 10.3369C68.9199 10.0452 68.8447 9.65332 68.8447 9.16113V1.80566ZM74.2383 4.76562V11H72.9736V3.60352H74.2041L74.2383 4.76562ZM76.5488 3.5625L76.542 4.73828C76.4372 4.71549 76.3369 4.70182 76.2412 4.69727C76.1501 4.68815 76.0452 4.68359 75.9268 4.68359C75.6351 4.68359 75.3776 4.72917 75.1543 4.82031C74.931 4.91146 74.7419 5.03906 74.5869 5.20312C74.432 5.36719 74.3089 5.56315 74.2178 5.79102C74.1312 6.01432 74.0742 6.26042 74.0469 6.5293L73.6914 6.73438C73.6914 6.28776 73.7347 5.86849 73.8213 5.47656C73.9124 5.08464 74.0514 4.73828 74.2383 4.4375C74.4251 4.13216 74.6621 3.89518 74.9492 3.72656C75.2409 3.55339 75.5872 3.4668 75.9883 3.4668C76.0794 3.4668 76.1842 3.47819 76.3027 3.50098C76.4212 3.51921 76.5033 3.53971 76.5488 3.5625ZM79.9189 10.2344L81.9766 3.60352H83.3301L80.3633 12.1416C80.2949 12.3239 80.2038 12.5199 80.0898 12.7295C79.9805 12.9437 79.8392 13.1465 79.666 13.3379C79.4928 13.5293 79.2832 13.6842 79.0371 13.8027C78.7956 13.9258 78.5062 13.9873 78.1689 13.9873C78.0687 13.9873 77.9411 13.9736 77.7861 13.9463C77.6312 13.9189 77.5218 13.8962 77.458 13.8779L77.4512 12.8525C77.4876 12.8571 77.5446 12.8617 77.6221 12.8662C77.7041 12.8753 77.7611 12.8799 77.793 12.8799C78.0801 12.8799 78.3239 12.8411 78.5244 12.7637C78.7249 12.6908 78.8936 12.5654 79.0303 12.3877C79.1715 12.2145 79.2923 11.9753 79.3926 11.6699L79.9189 10.2344ZM78.4082 3.60352L80.3291 9.3457L80.6572 10.6787L79.748 11.1436L77.0273 3.60352H78.4082ZM83.7539 10.3301C83.7539 10.1159 83.82 9.93587 83.9521 9.79004C84.0889 9.63965 84.2848 9.56445 84.54 9.56445C84.7952 9.56445 84.9889 9.63965 85.1211 9.79004C85.2578 9.93587 85.3262 10.1159 85.3262 10.3301C85.3262 10.5397 85.2578 10.7174 85.1211 10.8633C84.9889 11.0091 84.7952 11.082 84.54 11.082C84.2848 11.082 84.0889 11.0091 83.9521 10.8633C83.82 10.7174 83.7539 10.5397 83.7539 10.3301ZM90.3848 10.0977C90.6855 10.0977 90.9635 10.0361 91.2188 9.91309C91.474 9.79004 91.6836 9.62142 91.8477 9.40723C92.0117 9.18848 92.1051 8.9401 92.1279 8.66211H93.3311C93.3083 9.09961 93.1602 9.50749 92.8867 9.88574C92.6178 10.2594 92.2646 10.5625 91.8271 10.7949C91.3896 11.0228 90.9089 11.1367 90.3848 11.1367C89.8288 11.1367 89.3434 11.0387 88.9287 10.8428C88.5186 10.6468 88.1768 10.3779 87.9033 10.0361C87.6344 9.69434 87.4316 9.30241 87.2949 8.86035C87.1628 8.41374 87.0967 7.94206 87.0967 7.44531V7.1582C87.0967 6.66146 87.1628 6.19206 87.2949 5.75C87.4316 5.30339 87.6344 4.90918 87.9033 4.56738C88.1768 4.22559 88.5186 3.95671 88.9287 3.76074C89.3434 3.56478 89.8288 3.4668 90.3848 3.4668C90.9635 3.4668 91.4694 3.58529 91.9023 3.82227C92.3353 4.05469 92.6748 4.3737 92.9209 4.7793C93.1715 5.18034 93.3083 5.63607 93.3311 6.14648H92.1279C92.1051 5.84115 92.0186 5.56543 91.8682 5.31934C91.7223 5.07324 91.5218 4.87728 91.2666 4.73145C91.016 4.58105 90.722 4.50586 90.3848 4.50586C89.9974 4.50586 89.6715 4.58333 89.4072 4.73828C89.1475 4.88867 88.9401 5.09375 88.7852 5.35352C88.6348 5.60872 88.5254 5.89355 88.457 6.20801C88.3932 6.5179 88.3613 6.83464 88.3613 7.1582V7.44531C88.3613 7.76888 88.3932 8.08789 88.457 8.40234C88.5208 8.7168 88.6279 9.00163 88.7783 9.25684C88.9333 9.51204 89.1406 9.71712 89.4004 9.87207C89.6647 10.0225 89.9928 10.0977 90.3848 10.0977ZM94.418 7.38379V7.22656C94.418 6.69336 94.4954 6.19889 94.6504 5.74316C94.8053 5.28288 95.0286 4.88411 95.3203 4.54688C95.612 4.20508 95.9652 3.94076 96.3799 3.75391C96.7946 3.5625 97.2594 3.4668 97.7744 3.4668C98.2939 3.4668 98.7611 3.5625 99.1758 3.75391C99.5951 3.94076 99.9505 4.20508 100.242 4.54688C100.538 4.88411 100.764 5.28288 100.919 5.74316C101.074 6.19889 101.151 6.69336 101.151 7.22656V7.38379C101.151 7.91699 101.074 8.41146 100.919 8.86719C100.764 9.32292 100.538 9.72168 100.242 10.0635C99.9505 10.4007 99.5973 10.665 99.1826 10.8564C98.7725 11.0433 98.3076 11.1367 97.7881 11.1367C97.2686 11.1367 96.8014 11.0433 96.3867 10.8564C95.972 10.665 95.6165 10.4007 95.3203 10.0635C95.0286 9.72168 94.8053 9.32292 94.6504 8.86719C94.4954 8.41146 94.418 7.91699 94.418 7.38379ZM95.6826 7.22656V7.38379C95.6826 7.75293 95.7259 8.10156 95.8125 8.42969C95.8991 8.75326 96.029 9.04036 96.2021 9.29102C96.3799 9.54167 96.6009 9.73991 96.8652 9.88574C97.1296 10.027 97.4372 10.0977 97.7881 10.0977C98.1344 10.0977 98.4375 10.027 98.6973 9.88574C98.9616 9.73991 99.1803 9.54167 99.3535 9.29102C99.5267 9.04036 99.6566 8.75326 99.7432 8.42969C99.8343 8.10156 99.8799 7.75293 99.8799 7.38379V7.22656C99.8799 6.86198 99.8343 6.5179 99.7432 6.19434C99.6566 5.86621 99.5244 5.57682 99.3467 5.32617C99.1735 5.07096 98.9548 4.87044 98.6904 4.72461C98.4307 4.57878 98.1253 4.50586 97.7744 4.50586C97.4281 4.50586 97.1227 4.57878 96.8584 4.72461C96.5986 4.87044 96.3799 5.07096 96.2021 5.32617C96.029 5.57682 95.8991 5.86621 95.8125 6.19434C95.7259 6.5179 95.6826 6.86198 95.6826 7.22656ZM103.995 5.07324V11H102.724V3.60352H103.927L103.995 5.07324ZM103.735 7.02148L103.147 7.00098C103.152 6.49512 103.218 6.02799 103.346 5.59961C103.473 5.16667 103.662 4.79069 103.913 4.47168C104.164 4.15267 104.476 3.90658 104.85 3.7334C105.223 3.55566 105.656 3.4668 106.148 3.4668C106.495 3.4668 106.814 3.51693 107.105 3.61719C107.397 3.71289 107.65 3.86556 107.864 4.0752C108.078 4.28483 108.245 4.55371 108.363 4.88184C108.482 5.20996 108.541 5.60645 108.541 6.07129V11H107.276V6.13281C107.276 5.74544 107.21 5.43555 107.078 5.20312C106.951 4.9707 106.768 4.80208 106.531 4.69727C106.294 4.58789 106.016 4.5332 105.697 4.5332C105.324 4.5332 105.011 4.59928 104.761 4.73145C104.51 4.86361 104.31 5.0459 104.159 5.27832C104.009 5.51074 103.899 5.77734 103.831 6.07812C103.767 6.37435 103.735 6.6888 103.735 7.02148ZM108.527 6.32422L107.68 6.58398C107.684 6.17839 107.75 5.78874 107.878 5.41504C108.01 5.04134 108.199 4.70866 108.445 4.41699C108.696 4.12533 109.004 3.89518 109.368 3.72656C109.733 3.55339 110.15 3.4668 110.619 3.4668C111.016 3.4668 111.367 3.51921 111.672 3.62402C111.982 3.72884 112.242 3.89062 112.451 4.10938C112.665 4.32357 112.827 4.59928 112.937 4.93652C113.046 5.27376 113.101 5.6748 113.101 6.13965V11H111.829V6.12598C111.829 5.71126 111.763 5.38997 111.631 5.16211C111.503 4.92969 111.321 4.7679 111.084 4.67676C110.852 4.58105 110.574 4.5332 110.25 4.5332C109.972 4.5332 109.726 4.58105 109.512 4.67676C109.298 4.77246 109.118 4.90462 108.972 5.07324C108.826 5.2373 108.714 5.42643 108.637 5.64062C108.564 5.85482 108.527 6.08268 108.527 6.32422Z" fill="#020202"/>
</svg>
