<svg width="185" height="48" viewBox="0 0 185 48" fill="none" xmlns="http://www.w3.org/2000/svg">
<path d="M75.8277 29.1703C75.8277 31.451 75.2924 33.1267 74.2219 34.1972C73.1513 35.2678 71.499 35.803 69.2648 35.803C67.0539 35.803 64.7033 35.6867 62.2131 35.4539V30.7412C64.0284 30.8576 65.8902 30.9158 67.7986 30.9158C68.3339 30.9158 68.7528 30.7645 69.0553 30.4619C69.3811 30.1361 69.544 29.7056 69.544 29.1703V15.9049H65.0059V11.0176H75.8277V29.1703Z" fill="white"/>
<path d="M91.5354 35.4539H78.9681V30.5667H82.11V15.9049H78.9681V11.0176H91.5354V15.9049H88.3936V30.5667H91.5354V35.4539Z" fill="white"/>
<path d="M115.62 34.9303C110.174 35.5121 105.171 35.803 100.609 35.803C98.3283 35.803 96.6527 35.2678 95.5821 34.1972C94.5116 33.1267 93.9763 31.451 93.9763 29.1703V17.9994C93.9763 15.5558 94.5232 13.787 95.617 12.6932C96.7341 11.5761 98.5145 11.0176 100.958 11.0176H113.525V15.9049H102.354C100.958 15.9049 100.26 16.603 100.26 17.9994V29.1703C100.26 29.7056 100.411 30.1361 100.714 30.4619C101.04 30.7645 101.47 30.9158 102.005 30.9158C104.682 30.9158 107.125 30.8576 109.336 30.7412V25.6794H104.798V21.4903H115.62V34.9303Z" fill="white"/>
<path d="M140.063 34.9303C134.617 35.5121 129.614 35.803 125.052 35.803C122.772 35.803 121.096 35.2678 120.025 34.1972C118.955 33.1267 118.419 31.451 118.419 29.1703V17.9994C118.419 15.5558 118.966 13.787 120.06 12.6932C121.177 11.5761 122.958 11.0176 125.401 11.0176H137.969V15.9049H126.798C125.401 15.9049 124.703 16.603 124.703 17.9994V29.1703C124.703 29.7056 124.854 30.1361 125.157 30.4619C125.483 30.7645 125.913 30.9158 126.449 30.9158C129.125 30.9158 131.569 30.8576 133.78 30.7412V25.6794H129.241V21.4903H140.063V34.9303Z" fill="white"/>
<path d="M149.845 30.5667H162.586V35.4539H143.561V11.0176H149.845V30.5667Z" fill="white"/>
<path d="M184.413 35.4539H165.038V11.0176H184.413V15.9049H171.322V20.6176H181.62V25.5049H171.322V30.5667H184.413V35.4539Z" fill="white"/>
<g clip-path="url(#clip0_1901_4659)">
<path fill-rule="evenodd" clip-rule="evenodd" d="M3.42876 8.33013C4.13741 8.3332 4.81612 8.61609 5.31721 9.11719C5.81831 9.61828 6.10122 10.297 6.10429 11.0057C6.12306 11.7005 6.4123 12.3605 6.91037 12.8453C7.40844 13.3301 8.07602 13.6014 8.77108 13.6014C9.46614 13.6014 10.1337 13.3301 10.6318 12.8453C11.1299 12.3605 11.4191 11.7005 11.4379 11.0057V2.67553C11.4409 1.96688 11.7238 1.28812 12.2249 0.78703C12.7259 0.285935 13.4048 0.00307222 14.1134 0V0C14.8193 0.00665222 15.4941 0.291222 15.9917 0.792042C16.4892 1.29286 16.7693 1.96958 16.7714 2.67553V20.1647C16.7617 20.521 16.8236 20.8756 16.9533 21.2076C17.083 21.5395 17.2779 21.8421 17.5265 22.0975C17.7751 22.3529 18.0723 22.5559 18.4006 22.6945C18.729 22.8331 19.0817 22.9045 19.4381 22.9045C19.7945 22.9045 20.1473 22.8331 20.4757 22.6945C20.804 22.5559 21.1013 22.3529 21.3499 22.0975C21.5985 21.8421 21.7933 21.5395 21.923 21.2076C22.0527 20.8756 22.1146 20.521 22.1049 20.1647V11.0057C22.108 10.297 22.3909 9.61828 22.892 9.11719C23.3931 8.61609 24.0718 8.3332 24.7805 8.33013V8.33013C25.4864 8.33678 26.1612 8.62138 26.6588 9.1222C27.1563 9.62302 27.4365 10.2997 27.4385 11.0057V20.1647C27.4385 20.8718 27.7194 21.5498 28.2193 22.0498C28.7193 22.5497 29.3972 22.8305 30.1043 22.8305C30.8113 22.8305 31.4894 22.5497 31.9893 22.0498C32.4892 21.5498 32.7701 20.8718 32.7701 20.1647V2.67553C32.7732 1.96655 33.0563 1.28749 33.5578 0.786341C34.0594 0.285191 34.7385 0.00256028 35.4475 0V0C36.1542 0.00360393 36.8307 0.287251 37.3286 0.788788C37.8265 1.29032 38.1052 1.96883 38.1037 2.67553V11.0057C38.1225 11.7005 38.4116 12.3605 38.9097 12.8453C39.4077 13.3301 40.0753 13.6014 40.7704 13.6014C41.4654 13.6014 42.1331 13.3301 42.6312 12.8453C43.1293 12.3605 43.4184 11.7005 43.4372 11.0057C43.4402 10.2967 43.7234 9.61765 44.2249 9.1165C44.7264 8.61535 45.4057 8.33269 46.1147 8.33013V8.33013C46.8214 8.33374 47.4978 8.61741 47.9957 9.11894C48.4936 9.62048 48.7723 10.299 48.7707 11.0057V37.0138C48.7682 37.7174 48.4875 38.3915 47.9899 38.8891C47.4924 39.3866 46.8183 39.6673 46.1147 39.6699V39.6699C45.4087 39.6684 44.7318 39.3887 44.2306 38.8915C43.7294 38.3944 43.4443 37.7197 43.4372 37.0138C43.4468 36.6575 43.385 36.3029 43.2553 35.971C43.1256 35.639 42.9307 35.3364 42.6821 35.081C42.4335 34.8256 42.1362 34.6226 41.8079 34.484C41.4796 34.3454 41.1268 34.274 40.7704 34.274C40.414 34.274 40.0613 34.3454 39.7329 34.484C39.4046 34.6226 39.1073 34.8256 38.8587 35.081C38.6102 35.3364 38.4152 35.639 38.2855 35.971C38.1558 36.3029 38.0941 36.6575 38.1037 37.0138V45.3342C38.1042 45.6832 38.0358 46.0289 37.9025 46.3515C37.7693 46.6741 37.5737 46.9673 37.327 47.2141C37.0802 47.461 36.7872 47.6569 36.4647 47.7904C36.1422 47.9239 35.7966 47.9925 35.4475 47.9922C34.7406 47.9933 34.0622 47.7141 33.5607 47.2159C33.0592 46.7177 32.7756 46.0411 32.772 45.3342V27.8216C32.772 27.1146 32.4912 26.4366 31.9913 25.9366C31.4914 25.4367 30.8133 25.1558 30.1063 25.1558C29.3992 25.1558 28.7212 25.4367 28.2212 25.9366C27.7213 26.4366 27.4404 27.1146 27.4404 27.8216V37.0002C27.4343 37.7031 27.1523 38.3754 26.655 38.8722C26.1578 39.3691 25.4853 39.6506 24.7825 39.6562V39.6562C24.0768 39.6542 23.4004 39.3743 22.8996 38.8772C22.3988 38.3801 22.1141 37.7058 22.1069 37.0002V27.8216C22.0882 27.1268 21.7989 26.4668 21.3009 25.982C20.8028 25.4972 20.1352 25.2259 19.4401 25.2259C18.7451 25.2259 18.0774 25.4972 17.5793 25.982C17.0813 26.4668 16.7921 27.1268 16.7734 27.8216V45.3342C16.7713 46.0385 16.4906 46.7134 15.9925 47.2114C15.4945 47.7095 14.8196 47.9902 14.1153 47.9922V47.9922C13.4083 47.9938 12.7295 47.7148 12.2279 47.2165C11.7263 46.7182 11.4429 46.0412 11.4398 45.3342V37.006C11.4494 36.6497 11.3875 36.2951 11.2578 35.9632C11.1281 35.6312 10.9333 35.3286 10.6847 35.0732C10.4361 34.8178 10.1388 34.6148 9.81051 34.4762C9.48217 34.3376 9.12938 34.2662 8.77298 34.2662C8.41658 34.2662 8.06379 34.3376 7.73545 34.4762C7.40711 34.6148 7.10993 34.8178 6.86134 35.0732C6.61276 35.3286 6.41783 35.6312 6.28814 35.9632C6.15845 36.2951 6.09657 36.6497 6.10619 37.006C6.09903 37.7116 5.81427 38.3859 5.31351 38.8831C4.81274 39.3802 4.13627 39.6601 3.43066 39.6621C2.72777 39.6565 2.05529 39.3749 1.55807 38.8781C1.06086 38.3812 0.778808 37.7089 0.772705 37.006V11.0057C0.774721 10.2997 1.05483 9.62302 1.55237 9.1222C2.04991 8.62138 2.72474 8.33678 3.43066 8.33013H3.42876ZM11.4379 18.6762C11.4475 18.3199 11.3856 17.9653 11.2559 17.6334C11.1262 17.3014 10.9313 16.9988 10.6827 16.7434C10.4341 16.488 10.1369 16.285 9.80861 16.1464C9.48027 16.0078 9.12748 15.9364 8.77108 15.9364C8.41468 15.9364 8.06189 16.0078 7.73355 16.1464C7.40521 16.285 7.10793 16.488 6.85935 16.7434C6.61076 16.9988 6.41593 17.3014 6.28624 17.6334C6.15655 17.9653 6.09467 18.3199 6.10429 18.6762V29.3433C6.12306 30.0381 6.4123 30.6981 6.91037 31.1829C7.40844 31.6677 8.07602 31.939 8.77108 31.939C9.46614 31.939 10.1337 31.6677 10.6318 31.1829C11.1299 30.6981 11.4191 30.0381 11.4379 29.3433V18.6762ZM38.0959 29.3433V18.6762C38.0863 18.3199 38.1481 17.9653 38.2777 17.6334C38.4074 17.3014 38.6024 16.9988 38.8509 16.7434C39.0995 16.488 39.3968 16.285 39.7252 16.1464C40.0535 16.0078 40.4063 15.9364 40.7627 15.9364C41.1191 15.9364 41.4718 16.0078 41.8001 16.1464C42.1285 16.285 42.4257 16.488 42.6743 16.7434C42.9229 16.9988 43.1178 17.3014 43.2475 17.6334C43.3772 17.9653 43.439 18.3199 43.4294 18.6762V29.3433C43.4106 30.0381 43.1215 30.6981 42.6234 31.1829C42.1253 31.6677 41.4577 31.939 40.7627 31.939C40.0676 31.939 39.3999 31.6677 38.9019 31.1829C38.4038 30.6981 38.1147 30.0381 38.0959 29.3433Z" fill="#E15539"/>
</g>
<defs>
<clipPath id="clip0_1901_4659">
<rect width="48" height="48" fill="white" transform="translate(0.772705)"/>
</clipPath>
</defs>
</svg>
