<svg width="1004" height="288" viewBox="0 0 1004 288" fill="none" xmlns="http://www.w3.org/2000/svg">
<g opacity="0.2">
<mask id="mask0_1541_46695" style="mask-type:alpha" maskUnits="userSpaceOnUse" x="-1" y="-141" width="485" height="429">
<path d="M29.2985 51.9641L0 22.6657L29.2985 -6.63281L58.5969 22.6657L29.2985 51.9641ZM5.05145 23.0024L29.2985 47.2493L53.5455 23.0024L29.2985 -1.24458L5.05145 23.0024Z" fill="#C2C3C5"/>
<path d="M29.2985 119.32L0 90.0211L29.2985 60.7227L58.5969 90.0211L29.2985 119.32ZM5.05145 90.0211L29.2985 114.268L53.5455 90.0211L29.2985 65.7741L5.05145 90.0211Z" fill="#C2C3C5"/>
<path d="M29.2985 186.671L0 157.373L29.2985 128.074L58.5969 157.373L29.2985 186.671ZM5.05145 157.373L29.2985 181.62L53.5455 157.373L29.2985 133.126L5.05145 157.373Z" fill="#C2C3C5"/>
<path d="M29.2985 254.023L0 224.724L29.2985 195.426L58.5969 224.724L29.2985 254.023ZM5.05145 224.724L29.2985 248.971L53.5455 224.724L29.2985 200.477L5.05145 224.724Z" fill="#C2C3C5"/>
<path d="M78.1285 18.2883L48.8301 -11.0101L78.1285 -40.3086L107.427 -11.0101L78.1285 18.2883ZM53.8815 -10.6733L78.1285 13.5736L102.376 -10.6733L78.1285 -34.9204L53.8815 -10.6733Z" fill="#C2C3C5"/>
<path d="M78.1285 85.6399L48.8301 56.3414L78.1285 27.043L107.427 56.3414L78.1285 85.6399ZM53.8815 56.6782L78.1285 80.9251L102.376 56.6782L78.1285 32.4312L53.8815 56.6782Z" fill="#C2C3C5"/>
<path d="M78.1285 152.995L48.8301 123.697L78.1285 94.3984L107.427 123.697L78.1285 152.995ZM53.8815 123.697L78.1285 147.944L102.376 123.697L78.1285 99.4499L53.8815 123.697Z" fill="#C2C3C5"/>
<path d="M78.1285 220.347L48.8301 191.048L78.1285 161.75L107.427 191.048L78.1285 220.347ZM53.8815 191.048L78.1285 215.295L102.376 191.048L78.1285 166.801L53.8815 191.048Z" fill="#C2C3C5"/>
<path d="M78.1285 287.698L48.8301 258.4L78.1285 229.102L107.427 258.4L78.1285 287.698ZM53.8815 258.4L78.1285 282.647L102.376 258.4L78.1285 234.153L53.8815 258.4Z" fill="#C2C3C5"/>
<path d="M123.592 51.9641L94.2935 22.6657L123.592 -6.63281L152.89 22.6657L123.592 51.9641ZM99.0082 23.0024L123.255 47.2493L147.502 23.0024L123.255 -1.24458L99.0082 23.0024Z" fill="#C2C3C5"/>
<path d="M123.592 119.32L94.2935 90.0211L123.592 60.7227L152.89 90.0211L123.592 119.32ZM99.0082 90.0211L123.255 114.268L147.502 90.0211L123.255 65.7741L99.0082 90.0211Z" fill="#C2C3C5"/>
<path d="M123.592 186.671L94.2935 157.373L123.592 128.074L152.89 157.373L123.592 186.671ZM99.0082 157.373L123.255 181.62L147.502 157.373L123.255 133.126L99.0082 157.373Z" fill="#C2C3C5"/>
<path d="M123.592 254.023L94.2935 224.724L123.592 195.426L152.89 224.724L123.592 254.023ZM99.0082 224.724L123.255 248.971L147.502 224.724L123.255 200.477L99.0082 224.724Z" fill="#C2C3C5"/>
<path d="M172.424 18.2883L143.125 -11.0101L172.424 -40.3086L201.722 -11.0101L172.424 18.2883ZM147.84 -10.6733L172.087 13.5736L196.334 -10.6733L172.087 -34.9204L147.84 -10.6733Z" fill="#C2C3C5"/>
<path d="M172.424 85.6399L143.125 56.3414L172.424 27.043L201.722 56.3414L172.424 85.6399ZM147.84 56.6782L172.087 80.9251L196.334 56.6782L172.087 32.4312L147.84 56.6782Z" fill="#C2C3C5"/>
<path d="M172.424 152.995L143.125 123.697L172.424 94.3984L201.722 123.697L172.424 152.995ZM147.84 123.697L172.087 147.944L196.334 123.697L172.087 99.4499L147.84 123.697Z" fill="#C2C3C5"/>
<path d="M172.424 220.347L143.125 191.048L172.424 161.75L201.722 191.048L172.424 220.347ZM147.84 191.048L172.087 215.295L196.334 191.048L172.087 166.801L147.84 191.048Z" fill="#C2C3C5"/>
<path d="M172.424 287.698L143.125 258.4L172.424 229.102L201.722 258.4L172.424 287.698ZM147.84 258.4L172.087 282.647L196.334 258.4L172.087 234.153L147.84 258.4Z" fill="#C2C3C5"/>
<path d="M217.55 51.9641L188.252 22.6657L217.55 -6.63281L246.849 22.6657L217.55 51.9641ZM192.967 23.0024L217.214 47.2493L241.461 23.0024L217.214 -1.24458L192.967 23.0024Z" fill="#C2C3C5"/>
<path d="M217.55 119.32L188.252 90.0211L217.55 60.7227L246.849 90.0211L217.55 119.32ZM192.967 90.0211L217.214 114.268L241.461 90.0211L217.214 65.7741L192.967 90.0211Z" fill="#C2C3C5"/>
<path d="M217.55 186.671L188.252 157.373L217.55 128.074L246.849 157.373L217.55 186.671ZM192.967 157.373L217.214 181.62L241.461 157.373L217.214 133.126L192.967 157.373Z" fill="#C2C3C5"/>
<path d="M217.55 254.023L188.252 224.724L217.55 195.426L246.849 224.724L217.55 254.023ZM192.967 224.724L217.214 248.971L241.461 224.724L217.214 200.477L192.967 224.724Z" fill="#C2C3C5"/>
<path d="M266.381 18.2883L237.082 -11.0101L266.381 -40.3086L295.679 -11.0101L266.381 18.2883ZM241.797 -10.6733L266.044 13.5736L290.291 -10.6733L266.044 -34.9204L241.797 -10.6733Z" fill="#C2C3C5"/>
<path d="M266.381 85.6399L237.082 56.3414L266.381 27.043L295.679 56.3414L266.381 85.6399ZM241.797 56.6782L266.044 80.9251L290.291 56.6782L266.044 32.4312L241.797 56.6782Z" fill="#C2C3C5"/>
<path d="M266.381 152.995L237.082 123.697L266.381 94.3984L295.679 123.697L266.381 152.995ZM241.797 123.697L266.044 147.944L290.291 123.697L266.044 99.4499L241.797 123.697Z" fill="#C2C3C5"/>
<path d="M266.381 220.347L237.082 191.048L266.381 161.75L295.679 191.048L266.381 220.347ZM241.797 191.048L266.044 215.295L290.291 191.048L266.044 166.801L241.797 191.048Z" fill="#C2C3C5"/>
<path d="M266.381 287.698L237.082 258.4L266.381 229.102L295.679 258.4L266.381 287.698ZM241.797 258.4L266.044 282.647L290.291 258.4L266.044 234.153L241.797 258.4Z" fill="#C2C3C5"/>
<path d="M311.505 51.9641L282.207 22.6657L311.505 -6.63281L340.804 22.6657L311.505 51.9641ZM287.258 23.0024L311.505 47.2493L335.753 23.0024L311.505 -1.24458L287.258 23.0024Z" fill="#C2C3C5"/>
<path d="M311.505 119.32L282.207 90.0211L311.505 60.7227L340.804 90.0211L311.505 119.32ZM287.258 90.0211L311.505 114.268L335.753 90.0211L311.505 65.7741L287.258 90.0211Z" fill="#C2C3C5"/>
<path d="M311.505 186.671L282.207 157.373L311.505 128.074L340.804 157.373L311.505 186.671ZM287.258 157.373L311.505 181.62L335.753 157.373L311.505 133.126L287.258 157.373Z" fill="#C2C3C5"/>
<path d="M311.505 254.023L282.207 224.724L311.505 195.426L340.804 224.724L311.505 254.023ZM287.258 224.724L311.505 248.971L335.753 224.724L311.505 200.477L287.258 224.724Z" fill="#C2C3C5"/>
<path d="M360.335 18.2883L331.037 -11.0101L360.335 -40.3086L389.634 -11.0101L360.335 18.2883ZM336.089 -10.6733L360.335 13.5736L384.583 -10.6733L360.335 -34.9204L336.089 -10.6733Z" fill="#C2C3C5"/>
<path d="M360.335 85.6399L331.037 56.3414L360.335 27.043L389.634 56.3414L360.335 85.6399ZM336.089 56.6782L360.335 80.9251L384.583 56.6782L360.335 32.4312L336.089 56.6782Z" fill="#C2C3C5"/>
<path d="M360.335 152.995L331.037 123.697L360.335 94.3984L389.634 123.697L360.335 152.995ZM336.089 123.697L360.335 147.944L384.583 123.697L360.335 99.4499L336.089 123.697Z" fill="#C2C3C5"/>
<path d="M360.335 220.347L331.037 191.048L360.335 161.75L389.634 191.048L360.335 220.347ZM336.089 191.048L360.335 215.295L384.583 191.048L360.335 166.801L336.089 191.048Z" fill="#C2C3C5"/>
<path d="M360.335 287.698L331.037 258.4L360.335 229.102L389.634 258.4L360.335 287.698ZM336.089 258.4L360.335 282.647L384.583 258.4L360.335 234.153L336.089 258.4Z" fill="#C2C3C5"/>
<path d="M405.464 51.9641L376.166 22.6657L405.464 -6.63281L434.763 22.6657L405.464 51.9641ZM381.217 23.0024L405.464 47.2493L429.711 23.0024L405.464 -1.24458L381.217 23.0024Z" fill="#C2C3C5"/>
<path d="M405.464 119.318L376.166 90.0192L405.464 60.7207L434.763 90.0192L405.464 119.318ZM381.217 90.0192L405.464 114.266L429.711 90.0192L405.464 65.7722L381.217 90.0192Z" fill="#C2C3C5"/>
<path d="M405.464 186.671L376.166 157.373L405.464 128.074L434.763 157.373L405.464 186.671ZM381.217 157.373L405.464 181.62L429.711 157.373L405.464 133.126L381.217 157.373Z" fill="#C2C3C5"/>
<path d="M405.464 254.023L376.166 224.724L405.464 195.426L434.763 224.724L405.464 254.023ZM381.217 224.724L405.464 248.971L429.711 224.724L405.464 200.477L381.217 224.724Z" fill="black"/>
<path d="M454.294 18.2883L424.996 -11.0101L454.294 -40.3086L483.593 -11.0101L454.294 18.2883ZM430.048 -10.6733L454.294 13.5736L478.541 -10.6733L454.294 -34.9204L430.048 -10.6733Z" fill="#C2C3C5"/>
<path d="M454.294 85.6399L424.996 56.3414L454.294 27.043L483.593 56.3414L454.294 85.6399ZM430.048 56.6782L454.294 80.9251L478.541 56.6782L454.294 32.4312L430.048 56.6782Z" fill="#C2C3C5"/>
<path d="M454.294 152.993L424.996 123.695L454.294 94.3965L483.593 123.695L454.294 152.993ZM430.048 123.695L454.294 147.942L478.541 123.695L454.294 99.4479L430.048 123.695Z" fill="#C2C3C5"/>
<path d="M454.294 220.347L424.996 191.048L454.294 161.75L483.593 191.048L454.294 220.347ZM430.048 191.048L454.294 215.295L478.541 191.048L454.294 166.801L430.048 191.048Z" fill="#C2C3C5"/>
<path d="M454.294 287.698L424.996 258.4L454.294 229.102L483.593 258.4L454.294 287.698ZM430.048 258.4L454.294 282.647L478.541 258.4L454.294 234.153L430.048 258.4Z" fill="#C2C3C5"/>
</mask>
<g mask="url(#mask0_1541_46695)">
<rect x="-38.5" y="0.5" width="343" height="365" fill="#D9D9D9" stroke="#C2C3C5"/>
</g>
</g>
</svg>
